<?xml version="1.0" encoding="UTF-8"?>
<svg width="88px" height="41px" viewBox="0 0 88 41" version="1.1" xmlns="http://www.w3.org/2000/svg" xmlns:xlink="http://www.w3.org/1999/xlink">
    <!-- Generator: Sketch 48.2 (47327) - http://www.bohemiancoding.com/sketch -->
    <title>logo-ead-pucv</title>
    <desc>Created with Sketch.</desc>
    <defs></defs>
    <g id="Page-1" stroke="none" stroke-width="1" fill="none" fill-rule="evenodd">
        <g id="logo-ead-pucv">
            <path d="M12.32,20.32 C12.7700023,20.2599997 13.0699993,20.1550007 13.22,20.005 C13.3700008,19.8549993 13.445,19.5550023 13.445,19.105 C13.445,17.904994 13.1225032,16.9900031 12.4775,16.36 C11.8324968,15.7299968 10.910006,15.415 9.71,15.415 C8.29999295,15.415 7.09250502,15.8874953 6.0875,16.8325 C5.08249497,17.7775047 4.44500135,19.0749917 4.175,20.725 L12.32,20.32 Z M3.995,22.39 L3.995,23.11 C3.995,24.3700063 4.15249843,25.5174948 4.4675,26.5525 C4.78250157,27.5875052 5.23249707,28.4649964 5.8175,29.185 C6.40250292,29.9050036 7.10749587,30.467498 7.9325,30.8725 C8.75750412,31.277502 9.66499505,31.48 10.655,31.48 C11.3450035,31.48 12.0274966,31.4125007 12.7025,31.2775 C13.3775034,31.1424993 13.9699975,30.9850009 14.48,30.805 C15.080003,30.594999 15.6499973,30.3550014 16.19,30.085 L16.46,30.175 L16.955,31.48 C16.1449959,32.0500028 15.335004,32.5599978 14.525,33.01 C13.8349966,33.400002 13.092504,33.7524984 12.2975,34.0675 C11.502496,34.3825016 10.7600034,34.54 10.07,34.54 C8.65999295,34.54 7.37000585,34.3000024 6.2,33.82 C5.02999415,33.3399976 4.03250412,32.6650044 3.2075,31.795 C2.38249587,30.9249956 1.74500225,29.8825061 1.295,28.6675 C0.84499775,27.4524939 0.62,26.0950075 0.62,24.595 C0.62,23.0649923 0.8899973,21.602507 1.43,20.2075 C1.9700027,18.812493 2.6899955,17.5900053 3.59,16.54 C4.4900045,15.4899948 5.539994,14.6575031 6.74,14.0425 C7.940006,13.4274969 9.21499325,13.12 10.565,13.12 C15.0350223,13.12 17.27,15.2949783 17.27,19.645 C17.2399998,20.2750032 17.2100001,20.687499 17.18,20.8825 C17.1499998,21.077501 17.0900004,21.3999978 17,21.85 L16.415,22.39 L3.995,22.39 Z" id="e" fill="#000000"></path>
            <path d="M23.48,39.67 C23.5400003,37.3299883 23.6149995,35.0800108 23.705,32.92 C23.7350001,32.0199955 23.7649998,31.0825049 23.795,30.1075 C23.8250001,29.1324951 23.8549998,28.1950045 23.885,27.295 C23.9150001,26.3949955 23.9374999,25.5550039 23.9525,24.775 C23.9675001,23.9949961 23.975,23.3200029 23.975,22.75 C23.975,22.1799971 23.9675001,21.5050039 23.9525,20.725 C23.9374999,19.9449961 23.9150001,19.0975046 23.885,18.1825 C23.8549998,17.2674954 23.8250001,16.3300048 23.795,15.37 C23.7649998,14.4099952 23.7350001,13.4650046 23.705,12.535 C23.6149995,10.3749892 23.5400003,8.095012 23.48,5.695 L31.76,5.2 L31.94,5.47 L31.67,6.865 L26.54,7.945 L26.54,37.42 L31.76,38.5 L31.94,38.815 L31.67,40.165 L23.48,39.67 Z" id="[" fill="#BF4B31"></path>
            <path d="M45.89,20.86 C45.89,19.3299924 45.5450034,18.1525041 44.855,17.3275 C44.1649965,16.5024959 43.1900063,16.09 41.93,16.09 C41.1799963,16.09 40.4900031,16.2099988 39.86,16.45 C39.2299968,16.6900012 38.6600025,16.9449987 38.15,17.215 C37.5799971,17.5450017 37.0400025,17.9199979 36.53,18.34 L36.305,18.205 L35.765,16.27 C36.7850051,15.6999971 37.7599953,15.1750024 38.69,14.695 C39.4700039,14.3049981 40.2724959,13.9450017 41.0975,13.615 C41.9225041,13.2849984 42.5899974,13.12 43.1,13.12 C45.0800099,13.12 46.6174945,13.6299949 47.7125,14.65 C48.8075055,15.6700051 49.355,17.0949909 49.355,18.925 C49.355,19.3450021 49.3100004,19.9899957 49.22,20.86 C49.1299995,21.7300044 49.0400004,22.6824948 48.95,23.7175 C48.8599995,24.7525052 48.7700004,25.772495 48.68,26.7775 C48.5899996,27.782505 48.545,28.6149967 48.545,29.275 C48.545,30.6550069 49.1599938,31.345 50.39,31.345 C50.7500018,31.345 51.0949983,31.2925005 51.425,31.1875 C51.7550016,31.0824995 52.0399988,30.9550007 52.28,30.805 C52.5800015,30.6549993 52.8499988,30.4600012 53.09,30.22 L53.72,30.94 C53.3599982,31.4800027 52.9850019,31.9899976 52.595,32.47 C52.2349982,32.8900021 51.8225023,33.2949981 51.3575,33.685 C50.8924977,34.075002 50.3750028,34.3599991 49.805,34.54 C47.3449877,34.54 46.010001,33.3250121 45.8,30.895 L45.62,30.85 C44.5399946,31.9300054 43.5575044,32.7849968 42.6725,33.415 C41.7874956,34.0450031 41.1200022,34.36 40.67,34.36 C39.8299958,34.36 39.0575035,34.2250013 38.3525,33.955 C37.6474965,33.6849986 37.0400025,33.3025025 36.53,32.8075 C36.0199974,32.3124975 35.6225014,31.7200035 35.3375,31.03 C35.0524986,30.3399966 34.91,29.5900041 34.91,28.78 C34.91,27.9099956 35.1274978,27.1450033 35.5625,26.485 C35.9975022,25.8249967 36.5749964,25.390001 37.295,25.18 L45.8,22.84 L45.89,20.86 Z M45.71,24.55 L39.635,26.395 C38.7649956,26.6650013 38.33,27.294995 38.33,28.285 C38.33,29.1550043 38.6224971,29.8749971 39.2075,30.445 C39.7925029,31.0150029 40.5349955,31.3 41.435,31.3 C42.0050028,31.3 42.6724962,31.097502 43.4375,30.6925 C44.2025038,30.287498 44.8999968,29.7700032 45.53,29.14 L45.71,24.55 Z M69.965,31.21 C66.8449844,33.3400106 64.9700031,34.405 64.34,34.405 C63.0499935,34.405 61.8725053,34.1800023 60.8075,33.73 C59.7424947,33.2799977 58.8275038,32.6350042 58.0625,31.795 C57.2974962,30.9549958 56.7050021,29.9500058 56.285,28.78 C55.8649979,27.6099941 55.655,26.3200071 55.655,24.91 C55.655,23.2899919 55.9474971,21.7675071 56.5325,20.3425 C57.1175029,18.9174929 57.9199949,17.6650054 58.94,16.585 C59.9600051,15.5049946 61.1524932,14.6575031 62.5175,14.0425 C63.8825068,13.4274969 65.3299923,13.12 66.86,13.12 C67.2800021,13.12 67.7449974,13.1349998 68.255,13.165 C68.7650025,13.1950001 69.3349968,13.2399997 69.965,13.3 L69.965,5.83 C69.965,4.2099919 69.4100055,3.4 68.3,3.4 C68.0899989,3.4 67.8350015,3.4299997 67.535,3.49 L67.175,3.58 L67.355,1.915 C68.1350039,1.82499955 68.922496,1.70500075 69.7175,1.555 C70.512504,1.40499925 71.2249968,1.25500075 71.855,1.105 C72.6050037,0.95499925 73.3249965,0.7900009 74.015,0.61 L74.285,1.195 C74.1349992,1.46500135 73.9850007,2.45499145 73.835,4.165 C73.6849993,5.87500855 73.5500006,8.04248688 73.43,10.6675 C73.3099994,13.2925131 73.2125004,16.2249838 73.1375,19.465 C73.0624996,22.7050162 73.025,25.9749835 73.025,29.275 C73.025,30.6550069 73.6399938,31.345 74.87,31.345 C75.2300018,31.345 75.5749983,31.2925005 75.905,31.1875 C76.2350016,31.0824995 76.5199988,30.9550007 76.76,30.805 C77.0600015,30.6549993 77.3299988,30.4600012 77.57,30.22 L78.2,30.94 C77.8399982,31.5100028 77.4500021,32.0349976 77.03,32.515 C76.6699982,32.9350021 76.2500024,33.339998 75.77,33.73 C75.2899976,34.120002 74.7950025,34.3899993 74.285,34.54 C71.9449883,34.54 70.6100016,33.4750107 70.28,31.345 L69.965,31.21 Z M69.965,16.765 C69.6349983,16.5849991 69.2450022,16.4200007 68.795,16.27 C68.404998,16.1199992 67.9475026,15.9925005 67.4225,15.8875 C66.8974974,15.7824995 66.2900035,15.73 65.6,15.73 C63.58999,15.73 62.0075058,16.4124932 60.8525,17.7775 C59.6974942,19.1425068 59.12,21.0099881 59.12,23.38 C59.12,24.5200057 59.2699985,25.5849951 59.57,26.575 C59.8700015,27.565005 60.2899973,28.4199964 60.83,29.14 C61.3700027,29.8600036 61.9999964,30.4299979 62.72,30.85 C63.4400036,31.2700021 64.2199958,31.48 65.06,31.48 C65.6000027,31.48 66.1549971,31.3600012 66.725,31.12 C67.2950029,30.8799988 67.8199976,30.6100015 68.3,30.31 C68.8400027,29.9799984 69.3949971,29.5750024 69.965,29.095 L69.965,16.765 Z" id="ad" fill="#000000"></path>
            <path d="M87.785,5.695 C87.6949995,8.095012 87.6050004,10.3599893 87.515,12.49 C87.4849998,13.4200047 87.4550001,14.3649952 87.425,15.325 C87.3949998,16.2850048 87.3725001,17.2074956 87.3575,18.0925 C87.3424999,18.9775044 87.3275001,19.8099961 87.3125,20.59 C87.2974999,21.3700039 87.29,22.0449972 87.29,22.615 C87.29,23.1850029 87.2974999,23.8599961 87.3125,24.64 C87.3275001,25.4200039 87.3424999,26.2674954 87.3575,27.1825 C87.3725001,28.0975046 87.3949998,29.0349952 87.425,29.995 C87.4550001,30.9550048 87.4849998,31.8999953 87.515,32.83 C87.6050004,34.9900108 87.6949995,37.269988 87.785,39.67 L79.505,40.165 L79.325,39.895 L79.595,38.5 L84.725,37.42 L84.725,7.945 L79.505,6.865 L79.325,6.55 L79.595,5.2 L87.785,5.695 Z" id="]" fill="#BF4B31"></path>
        </g>
    </g>
</svg>